<svg width="79" height="24" viewBox="0 0 79 24" fill="none" xmlns="http://www.w3.org/2000/svg">
<path d="M1.4 5H4.52V13.36C4.52 14.1467 4.72667 14.7467 5.14 15.16C5.55333 15.56 6.14667 15.76 6.92 15.76C7.70667 15.76 8.30667 15.56 8.72 15.16C9.13333 14.7467 9.34 14.1467 9.34 13.36V5H12.46V13.36C12.46 17.04 10.6133 18.88 6.92 18.88C3.24 18.88 1.4 17.04 1.4 13.36V5ZM29.0272 5.54H32.4672L26.6872 18.86L23.4072 12.48L20.1472 18.86L14.3672 5.54H17.7872L20.4272 11.74L23.4272 5.24L26.4072 11.74L29.0272 5.54ZM50.0641 17.58C49.5041 17.9667 48.8841 18.2667 48.2041 18.48C47.5241 18.6933 46.7907 18.8 46.0041 18.8C44.9507 18.8 43.9907 18.62 43.1241 18.26C42.2574 17.9 41.5107 17.4133 40.8841 16.8C40.2707 16.1867 39.7974 15.4733 39.4641 14.66C39.1307 13.8467 38.9641 12.9867 38.9641 12.08C38.9641 11.16 39.1307 10.2867 39.4641 9.46C39.8107 8.63333 40.2907 7.90667 40.9041 7.28C41.5307 6.64 42.2707 6.13333 43.1241 5.76C43.9907 5.38667 44.9507 5.2 46.0041 5.2C46.7907 5.2 47.5174 5.32 48.1841 5.56C48.8641 5.78667 49.4907 6.1 50.0641 6.5L49.0241 9.28C48.7574 8.94667 48.3641 8.68 47.8441 8.48C47.3374 8.28 46.7241 8.18 46.0041 8.18C45.4574 8.18 44.9574 8.28667 44.5041 8.5C44.0641 8.71333 43.6841 9 43.3641 9.36C43.0441 9.72 42.7907 10.14 42.6041 10.62C42.4307 11.0867 42.3441 11.5733 42.3441 12.08C42.3441 12.6 42.4307 13.0867 42.6041 13.54C42.7907 13.9933 43.0441 14.3933 43.3641 14.74C43.6974 15.0733 44.0841 15.34 44.5241 15.54C44.9774 15.7267 45.4707 15.82 46.0041 15.82C46.2974 15.82 46.6107 15.7867 46.9441 15.72V13.9H45.3841V11.34H50.0641V17.58ZM52.9258 5.2H57.3058C58.6924 5.2 59.8724 5.40667 60.8458 5.82C61.8324 6.22 62.6391 6.75333 63.2658 7.42C63.8924 8.07333 64.3524 8.82667 64.6458 9.68C64.9391 10.5333 65.0858 11.4 65.0858 12.28C65.0858 13.0933 64.9324 13.8933 64.6258 14.68C64.3191 15.4533 63.8458 16.1467 63.2058 16.76C62.5791 17.3733 61.7724 17.8667 60.7858 18.24C59.8124 18.6133 58.6524 18.8 57.3058 18.8H52.9258V5.2ZM57.1658 15.82C57.9524 15.82 58.6258 15.7333 59.1858 15.56C59.7591 15.3733 60.2324 15.12 60.6058 14.8C60.9791 14.48 61.2524 14.1067 61.4258 13.68C61.6124 13.24 61.7058 12.7733 61.7058 12.28C61.7058 11.7467 61.6124 11.2333 61.4258 10.74C61.2524 10.2467 60.9791 9.81333 60.6058 9.44C60.2324 9.05333 59.7591 8.74667 59.1858 8.52C58.6258 8.29333 57.9524 8.18 57.1658 8.18H56.0258V15.82H57.1658ZM78.0328 17.58C77.4728 17.9667 76.8528 18.2667 76.1728 18.48C75.4928 18.6933 74.7595 18.8 73.9728 18.8C72.9195 18.8 71.9595 18.62 71.0928 18.26C70.2261 17.9 69.4795 17.4133 68.8528 16.8C68.2395 16.1867 67.7661 15.4733 67.4328 14.66C67.0995 13.8467 66.9328 12.9867 66.9328 12.08C66.9328 11.16 67.0995 10.2867 67.4328 9.46C67.7795 8.63333 68.2595 7.90667 68.8728 7.28C69.4995 6.64 70.2395 6.13333 71.0928 5.76C71.9595 5.38667 72.9195 5.2 73.9728 5.2C74.7595 5.2 75.4861 5.32 76.1528 5.56C76.8328 5.78667 77.4595 6.1 78.0328 6.5L76.9928 9.28C76.7261 8.94667 76.3328 8.68 75.8128 8.48C75.3061 8.28 74.6928 8.18 73.9728 8.18C73.4261 8.18 72.9261 8.28667 72.4728 8.5C72.0328 8.71333 71.6528 9 71.3328 9.36C71.0128 9.72 70.7595 10.14 70.5728 10.62C70.3995 11.0867 70.3128 11.5733 70.3128 12.08C70.3128 12.6 70.3995 13.0867 70.5728 13.54C70.7595 13.9933 71.0128 14.3933 71.3328 14.74C71.6661 15.0733 72.0528 15.34 72.4928 15.54C72.9461 15.7267 73.4395 15.82 73.9728 15.82C74.6261 15.82 75.2261 15.7 75.7728 15.46C76.3328 15.2067 76.8261 14.9067 77.2528 14.56L78.0328 17.58Z" fill="black"/>
</svg>
