<svg width="129" height="32" viewBox="0 0 129 32" fill="none" xmlns="http://www.w3.org/2000/svg">
<rect width="129" height="32" rx="16" fill="black" fill-opacity="0.5"/>
<path d="M23.275 25.4409C29.042 22.8684 32 18.7073 32 13.0448V7.99903C32 7.1706 31.3284 6.5 30.5 6.5H15.5C14.6716 6.5 14 7.17157 14 8V13.0448C14 18.7062 16.958 22.8684 22.725 25.4409C22.8134 25.4803 22.9067 25.5 23 25.5C23.0933 25.5 23.1866 25.4803 23.275 25.4409Z" fill="white"/>
<g filter="url(#filter1_i_5_714)">
<circle cx="30" cy="12.25" r="1.25" fill="#F6CF51"/>
</g>
<g filter="url(#filter2_i_5_714)">
<circle cx="27.5" cy="9.75" r="1.25" fill="#4CF078"/>
</g>
<g filter="url(#filter3_i_5_714)">
<circle cx="25" cy="12.25" r="1.25" fill="#F85959"/>
</g>
<g filter="url(#filter4_i_5_714)">
<circle cx="27.5" cy="14.75" r="1.25" fill="#5E8FFA"/>
</g>
<g filter="url(#filter5_i_5_714)">
<path d="M23 16.5L17 21.4612L18 22.5L23 18.5L28 22.5L29 21.4612L23 16.5Z" fill="#363636"/>
</g>
<g filter="url(#filter6_i_5_714)">
<path d="M14.75 11.25V13.25H16.75L17.75 12.25L16.75 11.25H14.75Z" fill="#363636"/>
</g>
<g filter="url(#filter7_i_5_714)">
<path d="M17.5 16L19.5 16L19.5 14L18.5 13L17.5 14L17.5 16Z" fill="#363636"/>
</g>
<g filter="url(#filter8_i_5_714)">
<path d="M22.25 13.25L22.25 11.25L20.25 11.25L19.25 12.25L20.25 13.25L22.25 13.25Z" fill="#363636"/>
</g>
<g filter="url(#filter9_i_5_714)">
<path d="M19.5 8.5L17.5 8.5L17.5 10.5L18.5 11.5L19.5 10.5L19.5 8.5Z" fill="#363636"/>
</g>
<path d="M39.4 9H42.52V17.36C42.52 18.1467 42.7267 18.7467 43.14 19.16C43.5533 19.56 44.1467 19.76 44.92 19.76C45.7067 19.76 46.3067 19.56 46.72 19.16C47.1333 18.7467 47.34 18.1467 47.34 17.36V9H50.46V17.36C50.46 21.04 48.6133 22.88 44.92 22.88C41.24 22.88 39.4 21.04 39.4 17.36V9ZM67.0272 9.54H70.4672L64.6872 22.86L61.4072 16.48L58.1472 22.86L52.3672 9.54H55.7872L58.4272 15.74L61.4272 9.24L64.4072 15.74L67.0272 9.54ZM88.0641 21.58C87.5041 21.9667 86.8841 22.2667 86.2041 22.48C85.5241 22.6933 84.7907 22.8 84.0041 22.8C82.9507 22.8 81.9907 22.62 81.1241 22.26C80.2574 21.9 79.5107 21.4133 78.8841 20.8C78.2707 20.1867 77.7974 19.4733 77.4641 18.66C77.1307 17.8467 76.9641 16.9867 76.9641 16.08C76.9641 15.16 77.1307 14.2867 77.4641 13.46C77.8107 12.6333 78.2907 11.9067 78.9041 11.28C79.5307 10.64 80.2707 10.1333 81.1241 9.76C81.9907 9.38667 82.9507 9.2 84.0041 9.2C84.7907 9.2 85.5174 9.32 86.1841 9.56C86.8641 9.78667 87.4907 10.1 88.0641 10.5L87.0241 13.28C86.7574 12.9467 86.3641 12.68 85.8441 12.48C85.3374 12.28 84.7241 12.18 84.0041 12.18C83.4574 12.18 82.9574 12.2867 82.5041 12.5C82.0641 12.7133 81.6841 13 81.3641 13.36C81.0441 13.72 80.7907 14.14 80.6041 14.62C80.4307 15.0867 80.3441 15.5733 80.3441 16.08C80.3441 16.6 80.4307 17.0867 80.6041 17.54C80.7907 17.9933 81.0441 18.3933 81.3641 18.74C81.6974 19.0733 82.0841 19.34 82.5241 19.54C82.9774 19.7267 83.4707 19.82 84.0041 19.82C84.2974 19.82 84.6107 19.7867 84.9441 19.72V17.9H83.3841V15.34H88.0641V21.58ZM90.9258 9.2H95.3058C96.6924 9.2 97.8724 9.40667 98.8458 9.82C99.8324 10.22 100.639 10.7533 101.266 11.42C101.892 12.0733 102.352 12.8267 102.646 13.68C102.939 14.5333 103.086 15.4 103.086 16.28C103.086 17.0933 102.932 17.8933 102.626 18.68C102.319 19.4533 101.846 20.1467 101.206 20.76C100.579 21.3733 99.7724 21.8667 98.7858 22.24C97.8124 22.6133 96.6524 22.8 95.3058 22.8H90.9258V9.2ZM95.1658 19.82C95.9524 19.82 96.6258 19.7333 97.1858 19.56C97.7591 19.3733 98.2324 19.12 98.6058 18.8C98.9791 18.48 99.2524 18.1067 99.4258 17.68C99.6124 17.24 99.7058 16.7733 99.7058 16.28C99.7058 15.7467 99.6124 15.2333 99.4258 14.74C99.2524 14.2467 98.9791 13.8133 98.6058 13.44C98.2324 13.0533 97.7591 12.7467 97.1858 12.52C96.6258 12.2933 95.9524 12.18 95.1658 12.18H94.0258V19.82H95.1658ZM116.033 21.58C115.473 21.9667 114.853 22.2667 114.173 22.48C113.493 22.6933 112.759 22.8 111.973 22.8C110.919 22.8 109.959 22.62 109.093 22.26C108.226 21.9 107.479 21.4133 106.853 20.8C106.239 20.1867 105.766 19.4733 105.433 18.66C105.099 17.8467 104.933 16.9867 104.933 16.08C104.933 15.16 105.099 14.2867 105.433 13.46C105.779 12.6333 106.259 11.9067 106.873 11.28C107.499 10.64 108.239 10.1333 109.093 9.76C109.959 9.38667 110.919 9.2 111.973 9.2C112.759 9.2 113.486 9.32 114.153 9.56C114.833 9.78667 115.459 10.1 116.033 10.5L114.993 13.28C114.726 12.9467 114.333 12.68 113.813 12.48C113.306 12.28 112.693 12.18 111.973 12.18C111.426 12.18 110.926 12.2867 110.473 12.5C110.033 12.7133 109.653 13 109.333 13.36C109.013 13.72 108.759 14.14 108.573 14.62C108.399 15.0867 108.313 15.5733 108.313 16.08C108.313 16.6 108.399 17.0867 108.573 17.54C108.759 17.9933 109.013 18.3933 109.333 18.74C109.666 19.0733 110.053 19.34 110.493 19.54C110.946 19.7267 111.439 19.82 111.973 19.82C112.626 19.82 113.226 19.7 113.773 19.46C114.333 19.2067 114.826 18.9067 115.253 18.56L116.033 21.58Z" fill="white"/>
<defs>
<filter id="filter1_i_5_714" x="28.75" y="10.75" width="2.5" height="2.75" filterUnits="userSpaceOnUse" color-interpolation-filters="sRGB">
<feFlood flood-opacity="0" result="BackgroundImageFix"/>
<feBlend mode="normal" in="SourceGraphic" in2="BackgroundImageFix" result="shape"/>
<feColorMatrix in="SourceAlpha" type="matrix" values="0 0 0 0 0 0 0 0 0 0 0 0 0 0 0 0 0 0 127 0" result="hardAlpha"/>
<feOffset dy="-0.25"/>
<feGaussianBlur stdDeviation="0.15"/>
<feComposite in2="hardAlpha" operator="arithmetic" k2="-1" k3="1"/>
<feColorMatrix type="matrix" values="0 0 0 0 0 0 0 0 0 0 0 0 0 0 0 0 0 0 0.25 0"/>
<feBlend mode="normal" in2="shape" result="effect1_innerShadow_5_714"/>
</filter>
<filter id="filter2_i_5_714" x="26.25" y="8.25" width="2.5" height="2.75" filterUnits="userSpaceOnUse" color-interpolation-filters="sRGB">
<feFlood flood-opacity="0" result="BackgroundImageFix"/>
<feBlend mode="normal" in="SourceGraphic" in2="BackgroundImageFix" result="shape"/>
<feColorMatrix in="SourceAlpha" type="matrix" values="0 0 0 0 0 0 0 0 0 0 0 0 0 0 0 0 0 0 127 0" result="hardAlpha"/>
<feOffset dy="-0.25"/>
<feGaussianBlur stdDeviation="0.15"/>
<feComposite in2="hardAlpha" operator="arithmetic" k2="-1" k3="1"/>
<feColorMatrix type="matrix" values="0 0 0 0 0 0 0 0 0 0 0 0 0 0 0 0 0 0 0.25 0"/>
<feBlend mode="normal" in2="shape" result="effect1_innerShadow_5_714"/>
</filter>
<filter id="filter3_i_5_714" x="23.75" y="10.75" width="2.5" height="2.75" filterUnits="userSpaceOnUse" color-interpolation-filters="sRGB">
<feFlood flood-opacity="0" result="BackgroundImageFix"/>
<feBlend mode="normal" in="SourceGraphic" in2="BackgroundImageFix" result="shape"/>
<feColorMatrix in="SourceAlpha" type="matrix" values="0 0 0 0 0 0 0 0 0 0 0 0 0 0 0 0 0 0 127 0" result="hardAlpha"/>
<feOffset dy="-0.25"/>
<feGaussianBlur stdDeviation="0.15"/>
<feComposite in2="hardAlpha" operator="arithmetic" k2="-1" k3="1"/>
<feColorMatrix type="matrix" values="0 0 0 0 0 0 0 0 0 0 0 0 0 0 0 0 0 0 0.25 0"/>
<feBlend mode="normal" in2="shape" result="effect1_innerShadow_5_714"/>
</filter>
<filter id="filter4_i_5_714" x="26.25" y="13.25" width="2.5" height="2.75" filterUnits="userSpaceOnUse" color-interpolation-filters="sRGB">
<feFlood flood-opacity="0" result="BackgroundImageFix"/>
<feBlend mode="normal" in="SourceGraphic" in2="BackgroundImageFix" result="shape"/>
<feColorMatrix in="SourceAlpha" type="matrix" values="0 0 0 0 0 0 0 0 0 0 0 0 0 0 0 0 0 0 127 0" result="hardAlpha"/>
<feOffset dy="-0.25"/>
<feGaussianBlur stdDeviation="0.15"/>
<feComposite in2="hardAlpha" operator="arithmetic" k2="-1" k3="1"/>
<feColorMatrix type="matrix" values="0 0 0 0 0 0 0 0 0 0 0 0 0 0 0 0 0 0 0.25 0"/>
<feBlend mode="normal" in2="shape" result="effect1_innerShadow_5_714"/>
</filter>
<filter id="filter5_i_5_714" x="17" y="16.25" width="12" height="6.25" filterUnits="userSpaceOnUse" color-interpolation-filters="sRGB">
<feFlood flood-opacity="0" result="BackgroundImageFix"/>
<feBlend mode="normal" in="SourceGraphic" in2="BackgroundImageFix" result="shape"/>
<feColorMatrix in="SourceAlpha" type="matrix" values="0 0 0 0 0 0 0 0 0 0 0 0 0 0 0 0 0 0 127 0" result="hardAlpha"/>
<feOffset dy="-0.25"/>
<feGaussianBlur stdDeviation="0.15"/>
<feComposite in2="hardAlpha" operator="arithmetic" k2="-1" k3="1"/>
<feColorMatrix type="matrix" values="0 0 0 0 0 0 0 0 0 0 0 0 0 0 0 0 0 0 0.25 0"/>
<feBlend mode="normal" in2="shape" result="effect1_innerShadow_5_714"/>
</filter>
<filter id="filter6_i_5_714" x="14.75" y="11" width="3" height="2.25" filterUnits="userSpaceOnUse" color-interpolation-filters="sRGB">
<feFlood flood-opacity="0" result="BackgroundImageFix"/>
<feBlend mode="normal" in="SourceGraphic" in2="BackgroundImageFix" result="shape"/>
<feColorMatrix in="SourceAlpha" type="matrix" values="0 0 0 0 0 0 0 0 0 0 0 0 0 0 0 0 0 0 127 0" result="hardAlpha"/>
<feOffset dy="-0.25"/>
<feGaussianBlur stdDeviation="0.15"/>
<feComposite in2="hardAlpha" operator="arithmetic" k2="-1" k3="1"/>
<feColorMatrix type="matrix" values="0 0 0 0 0 0 0 0 0 0 0 0 0 0 0 0 0 0 0.25 0"/>
<feBlend mode="normal" in2="shape" result="effect1_innerShadow_5_714"/>
</filter>
<filter id="filter7_i_5_714" x="17.5" y="12.75" width="2" height="3.25" filterUnits="userSpaceOnUse" color-interpolation-filters="sRGB">
<feFlood flood-opacity="0" result="BackgroundImageFix"/>
<feBlend mode="normal" in="SourceGraphic" in2="BackgroundImageFix" result="shape"/>
<feColorMatrix in="SourceAlpha" type="matrix" values="0 0 0 0 0 0 0 0 0 0 0 0 0 0 0 0 0 0 127 0" result="hardAlpha"/>
<feOffset dy="-0.25"/>
<feGaussianBlur stdDeviation="0.15"/>
<feComposite in2="hardAlpha" operator="arithmetic" k2="-1" k3="1"/>
<feColorMatrix type="matrix" values="0 0 0 0 0 0 0 0 0 0 0 0 0 0 0 0 0 0 0.25 0"/>
<feBlend mode="normal" in2="shape" result="effect1_innerShadow_5_714"/>
</filter>
<filter id="filter8_i_5_714" x="19.25" y="11" width="3" height="2.25" filterUnits="userSpaceOnUse" color-interpolation-filters="sRGB">
<feFlood flood-opacity="0" result="BackgroundImageFix"/>
<feBlend mode="normal" in="SourceGraphic" in2="BackgroundImageFix" result="shape"/>
<feColorMatrix in="SourceAlpha" type="matrix" values="0 0 0 0 0 0 0 0 0 0 0 0 0 0 0 0 0 0 127 0" result="hardAlpha"/>
<feOffset dy="-0.25"/>
<feGaussianBlur stdDeviation="0.15"/>
<feComposite in2="hardAlpha" operator="arithmetic" k2="-1" k3="1"/>
<feColorMatrix type="matrix" values="0 0 0 0 0 0 0 0 0 0 0 0 0 0 0 0 0 0 0.25 0"/>
<feBlend mode="normal" in2="shape" result="effect1_innerShadow_5_714"/>
</filter>
<filter id="filter9_i_5_714" x="17.5" y="8.25" width="2" height="3.25" filterUnits="userSpaceOnUse" color-interpolation-filters="sRGB">
<feFlood flood-opacity="0" result="BackgroundImageFix"/>
<feBlend mode="normal" in="SourceGraphic" in2="BackgroundImageFix" result="shape"/>
<feColorMatrix in="SourceAlpha" type="matrix" values="0 0 0 0 0 0 0 0 0 0 0 0 0 0 0 0 0 0 127 0" result="hardAlpha"/>
<feOffset dy="-0.25"/>
<feGaussianBlur stdDeviation="0.15"/>
<feComposite in2="hardAlpha" operator="arithmetic" k2="-1" k3="1"/>
<feColorMatrix type="matrix" values="0 0 0 0 0 0 0 0 0 0 0 0 0 0 0 0 0 0 0.25 0"/>
<feBlend mode="normal" in2="shape" result="effect1_innerShadow_5_714"/>
</filter>
</defs>
</svg>
